<svg width="16" height="16" viewBox="0 0 16 16" fill="none" xmlns="http://www.w3.org/2000/svg">
<path d="M8.00001 15.1666C4.04668 15.1666 0.833344 11.9533 0.833344 7.99992C0.833344 4.04659 4.04668 0.833252 8.00001 0.833252C11.9533 0.833252 15.1667 4.04659 15.1667 7.99992C15.1667 11.9533 11.9533 15.1666 8.00001 15.1666ZM8.00001 1.83325C4.60001 1.83325 1.83334 4.59992 1.83334 7.99992C1.83334 11.3999 4.60001 14.1666 8.00001 14.1666C11.4 14.1666 14.1667 11.3999 14.1667 7.99992C14.1667 4.59992 11.4 1.83325 8.00001 1.83325Z" fill="white"/>
<path d="M8 10.8333C7.72667 10.8333 7.5 10.6066 7.5 10.3333V6.33325C7.5 6.05992 7.72667 5.83325 8 5.83325C8.27333 5.83325 8.5 6.05992 8.5 6.33325V10.3333C8.5 10.6066 8.27333 10.8333 8 10.8333Z" fill="white"/>
<path d="M10 8.16655C9.87334 8.16655 9.74668 8.11988 9.64668 8.01988L8.00001 6.37321L6.35334 8.01988C6.16001 8.21321 5.84001 8.21321 5.64668 8.01988C5.45335 7.82655 5.45335 7.50655 5.64668 7.31321L7.64668 5.31321C7.84001 5.11988 8.16001 5.11988 8.35334 5.31321L10.3533 7.31321C10.5467 7.50655 10.5467 7.82655 10.3533 8.01988C10.2533 8.11988 10.1267 8.16655 10 8.16655Z" fill="white"/>
</svg>
